<?xml version="1.0" standalone="no"?>
<!DOCTYPE svg PUBLIC "-//W3C//DTD SVG 20010904//EN"
 "http://www.w3.org/TR/2001/REC-SVG-20010904/DTD/svg10.dtd">
<svg version="1.0" xmlns="http://www.w3.org/2000/svg"
 width="1276.000000pt" height="1276.000000pt" viewBox="0 0 1276.000000 1276.000000"
 preserveAspectRatio="xMidYMid meet">
<metadata>
Created by potrace 1.14, written by Peter Selinger 2001-2017
</metadata>
<g transform="translate(0.000000,1276.000000) scale(0.100000,-0.100000)"
fill="#000000" stroke="none">
<path d="M6499 12576 c-35 -25 -51 -64 -44 -105 8 -49 22 -61 69 -63 57 -2 80
28 77 97 -3 57 -64 100 -102 71z"/>
<path d="M6497 11865 c-56 -28 -77 -127 -45 -213 28 -74 76 -103 129 -76 72
36 82 189 18 267 -31 38 -59 44 -102 22z"/>
<path d="M6520 11093 c-7 -32 -14 -69 -16 -83 -2 -14 -18 -86 -34 -160 -17
-74 -33 -146 -35 -160 -3 -14 -8 -32 -11 -40 -3 -8 -8 -26 -10 -39 -10 -51
-69 -214 -146 -401 -44 -107 -108 -262 -141 -345 -96 -240 -199 -434 -375
-705 -100 -154 -102 -158 -287 -405 -123 -164 -313 -365 -505 -536 -133 -118
-223 -203 -294 -279 -258 -274 -276 -294 -374 -425 -37 -50 -76 -100 -86 -112
-11 -12 -38 -55 -60 -96 -23 -41 -59 -101 -80 -133 -81 -121 -183 -362 -212
-498 -39 -187 -39 -485 2 -685 73 -365 238 -701 450 -916 36 -37 147 -135 240
-213 76 -64 205 -144 284 -178 116 -49 445 -158 545 -181 338 -77 590 -86 857
-32 54 10 109 24 124 29 15 6 44 14 64 19 l38 9 -4 -101 c-3 -56 -7 -103 -9
-106 -5 -4 -111 -4 -385 1 -170 3 -254 -5 -438 -42 -81 -16 -160 -31 -176 -34
-73 -13 -190 -124 -241 -229 -43 -91 -58 -158 -51 -240 11 -142 59 -274 124
-344 17 -18 33 -47 37 -64 14 -65 22 -736 10 -834 -34 -275 -107 -467 -198
-524 -18 -11 -66 -34 -106 -50 -100 -41 -146 -75 -195 -145 -81 -116 -113
-234 -85 -318 19 -59 42 -65 232 -61 124 2 157 0 157 -10 0 -38 34 -118 66
-155 92 -108 274 -135 419 -62 34 17 70 44 83 62 12 18 36 53 53 76 96 138
406 128 465 -14 15 -35 13 -63 -11 -169 -8 -33 -16 -73 -19 -90 -3 -16 -8 -43
-12 -60 -17 -89 -32 -239 -30 -305 1 -64 7 -87 39 -154 72 -152 192 -272 346
-343 107 -51 175 -46 261 16 92 67 150 159 188 301 27 98 34 148 34 245 0 79
-4 115 -22 225 -5 30 -12 75 -15 100 -3 25 -8 54 -10 65 -24 137 -23 201 4
254 39 76 126 91 151 26 5 -14 12 -100 15 -192 7 -207 8 -214 51 -279 57 -86
168 -144 274 -144 49 0 145 26 167 45 7 5 30 24 52 40 105 81 148 208 155 454
l2 74 55 3 c71 5 126 22 169 53 97 70 117 163 62 282 -65 139 -144 185 -317
187 -88 1 -88 1 -127 39 -22 21 -48 52 -59 69 -37 60 -70 227 -94 479 -3 33
-8 76 -10 95 -2 19 -6 80 -10 135 l-6 100 52 -1 c154 -5 249 110 251 303 1 81
-6 125 -38 258 -14 55 -27 111 -29 125 -3 14 -9 40 -14 58 -5 18 -10 36 -10
40 -1 7 -14 93 -16 102 -1 3 -5 46 -10 95 -5 50 -10 98 -11 108 -1 9 -2 23 -3
31 -3 30 -124 135 -200 173 l-76 38 -210 1 c-179 2 -222 5 -290 23 -85 23
-108 29 -140 35 -115 23 -166 40 -175 56 -6 10 -10 67 -10 126 l0 108 33 -31
c43 -41 118 -77 194 -93 89 -18 430 -16 583 4 14 2 54 7 90 11 36 5 67 9 70
10 3 1 25 5 50 9 142 24 417 107 610 184 87 35 193 83 200 92 3 3 25 16 50 29
116 59 287 212 387 346 172 231 350 616 389 844 3 14 7 37 10 51 26 133 25
459 -1 580 -3 14 -8 39 -10 55 -34 196 -127 434 -232 593 -53 81 -184 263
-208 288 -5 6 -28 33 -50 60 -104 128 -469 503 -656 676 -20 18 -82 75 -138
127 -56 51 -135 132 -174 180 -40 47 -91 106 -115 131 -177 185 -546 781 -672
1085 -23 55 -53 125 -67 155 -142 312 -253 644 -288 860 -3 19 -9 55 -15 80
-5 25 -17 85 -25 134 -26 141 -44 161 -65 69z"/>
<path d="M7826 10138 c-49 -43 -38 -202 19 -285 50 -75 140 -112 196 -82 52
27 53 124 4 235 -34 78 -61 111 -105 134 -51 26 -83 25 -114 -2z"/>
<path d="M4788 8777 c-20 -16 -78 -137 -78 -165 0 -92 110 -124 172 -51 78 93
-4 284 -94 216z"/>
</g>
</svg>
